<?xml version="1.0" encoding="UTF-8"?>
<!DOCTYPE svg PUBLIC "-//W3C//DTD SVG 1.1//EN" "http://www.w3.org/Graphics/SVG/1.1/DTD/svg11.dtd">
<svg xmlns="http://www.w3.org/2000/svg" version="1.1" width="1080px" height="1080px" style="shape-rendering:geometricPrecision; text-rendering:geometricPrecision; image-rendering:optimizeQuality; fill-rule:evenodd; clip-rule:evenodd" xmlns:xlink="http://www.w3.org/1999/xlink">
<g><path style="opacity:0.364" fill="#000000" d="M 488.5,144.5 C 486.957,145.56 485.957,147.06 485.5,149C 562.987,349.584 640.654,550.417 718.5,751.5C 709.161,751.334 699.827,751.5 690.5,752C 687.297,753.947 686.797,756.447 689,759.5C 736.167,806.667 783.333,853.833 830.5,901C 842.5,901.667 854.5,901.667 866.5,901C 867.636,899.855 868.636,898.688 869.5,897.5C 871.136,904.335 870.636,911.002 868,917.5C 867.097,918.701 865.931,919.535 864.5,920C 856.225,921.103 847.892,921.603 839.5,921.5C 832.5,921.333 825.5,921.167 818.5,921C 816.392,920.64 814.392,919.973 812.5,919C 765.333,871.833 718.167,824.667 671,777.5C 667.667,769.5 667.667,761.5 671,753.5C 672.419,752.54 673.919,751.707 675.5,751C 681.158,750.26 686.825,749.594 692.5,749C 686.534,733.437 680.367,717.937 674,702.5C 674.598,708.629 672.764,713.796 668.5,718C 667.167,718.333 665.833,718.667 664.5,719C 602.834,719.5 541.168,719.667 479.5,719.5C 455.297,783.579 430.797,847.579 406,911.5C 404.689,917.147 401.189,920.313 395.5,921C 381.833,921.667 368.167,921.667 354.5,921C 351.126,920.479 348.126,919.146 345.5,917C 298.279,869.779 251.113,822.613 204,775.5C 202,768.833 202,762.167 204,755.5C 205.167,754.333 206.333,753.167 207.5,752C 218.482,750.506 229.315,749.006 240,747.5C 264.941,682.675 290.275,618.009 316,553.5C 318.042,551.396 320.542,550.229 323.5,550C 418.833,549.333 514.167,549.333 609.5,550C 611.058,550.21 612.391,550.71 613.5,551.5C 520.833,551.333 428.166,551.5 335.5,552C 334.667,552.833 333.833,553.667 333,554.5C 307.667,619.833 282.333,685.167 257,750.5C 246.577,751.321 236.077,751.821 225.5,752C 221.874,753.722 221.041,756.222 223,759.5C 270.472,805.972 317.639,852.806 364.5,900C 370.897,901.128 377.397,901.628 384,901.5C 389.833,901.333 395.667,901.167 401.5,901C 403.041,899.421 404.208,897.587 405,895.5C 429.975,830.238 455.142,765.071 480.5,700C 544.07,699.831 607.57,699.331 671,698.5C 671.638,697.391 672.138,696.225 672.5,695C 654.397,646.655 635.397,598.821 615.5,551.5C 603.634,519.74 591.468,488.073 579,456.5C 578.697,460.894 578.03,465.227 577,469.5C 567.611,494.611 557.944,519.611 548,544.5C 547.097,545.701 545.931,546.535 544.5,547C 474.878,548.653 405.211,548.987 335.5,548C 328.091,545.868 325.091,540.868 326.5,533C 326.515,529.097 327.015,525.264 328,521.5C 369.196,415.579 410.196,309.579 451,203.5C 453.361,195.468 458.694,191.801 467,192.5C 469.848,192.798 472.681,193.131 475.5,193.5C 473.525,194.646 472.025,196.313 471,198.5C 429.363,307.078 387.53,415.578 345.5,524C 345.903,525.473 346.57,526.806 347.5,528C 413.833,528.667 480.167,528.667 546.5,528C 547.701,527.097 548.535,525.931 549,524.5C 558.223,499.722 567.723,475.056 577.5,450.5C 545.569,367.206 513.735,283.872 482,200.5C 481.033,197.379 479.2,195.046 476.5,193.5C 473.627,184.083 470.461,174.75 467,165.5C 465.919,158.946 466.586,152.612 469,146.5C 470.648,145.283 472.481,144.45 474.5,144C 479.352,143.185 484.019,143.352 488.5,144.5 Z"/></g>
<g><path style="opacity:0.945" fill="#5a11f5" d="M 488.5,144.5 C 490.308,144.491 491.975,144.991 493.5,146C 540.333,193.5 587.167,241 634,288.5C 712.605,491.484 791.105,694.484 869.5,897.5C 868.636,898.688 867.636,899.855 866.5,901C 854.5,901.667 842.5,901.667 830.5,901C 783.333,853.833 736.167,806.667 689,759.5C 686.797,756.447 687.297,753.947 690.5,752C 699.827,751.5 709.161,751.334 718.5,751.5C 640.654,550.417 562.987,349.584 485.5,149C 485.957,147.06 486.957,145.56 488.5,144.5 Z"/></g>
<g><path style="opacity:1" fill="#fefeff" d="M 692.5,757.5 C 703.167,756.833 713.833,756.167 724.5,755.5C 646.148,553.596 568.315,351.596 491,149.5C 535.639,195.139 580.639,240.472 626,285.5C 629.356,288.876 631.69,292.876 633,297.5C 710.471,497.418 787.638,697.418 864.5,897.5C 853.828,897.667 843.161,897.5 832.5,897C 785.965,850.299 739.299,803.799 692.5,757.5 Z"/></g>
<g><path style="opacity:0.969" fill="#590cf6" d="M 475.5,193.5 C 475.833,193.5 476.167,193.5 476.5,193.5C 479.2,195.046 481.033,197.379 482,200.5C 513.735,283.872 545.569,367.206 577.5,450.5C 567.723,475.056 558.223,499.722 549,524.5C 548.535,525.931 547.701,527.097 546.5,528C 480.167,528.667 413.833,528.667 347.5,528C 346.57,526.806 345.903,525.473 345.5,524C 387.53,415.578 429.363,307.078 471,198.5C 472.025,196.313 473.525,194.646 475.5,193.5 Z"/></g>
<g><path style="opacity:1" fill="#fefeff" d="M 475.5,198.5 C 508.148,281.159 540.315,364.159 572,447.5C 572.667,449.167 572.667,450.833 572,452.5C 562.833,476.167 553.667,499.833 544.5,523.5C 479.503,524.667 414.503,524.833 349.5,524C 391.796,415.611 433.796,307.111 475.5,198.5 Z"/></g>
<g><path style="opacity:0.989" fill="#590bf7" d="M 613.5,551.5 C 614.167,551.5 614.833,551.5 615.5,551.5C 635.397,598.821 654.397,646.655 672.5,695C 672.138,696.225 671.638,697.391 671,698.5C 607.57,699.331 544.07,699.831 480.5,700C 455.142,765.071 429.975,830.238 405,895.5C 404.208,897.587 403.041,899.421 401.5,901C 395.667,901.167 389.833,901.333 384,901.5C 377.397,901.628 370.897,901.128 364.5,900C 317.639,852.806 270.472,805.972 223,759.5C 221.041,756.222 221.874,753.722 225.5,752C 236.077,751.821 246.577,751.321 257,750.5C 282.333,685.167 307.667,619.833 333,554.5C 333.833,553.667 334.667,552.833 335.5,552C 428.166,551.5 520.833,551.333 613.5,551.5 Z"/></g>
<g><path style="opacity:1" fill="#fefeff" d="M 227.5,757.5 C 238.167,756.833 248.833,756.167 259.5,755.5C 285.203,688.894 311.203,622.394 337.5,556C 429.5,555.333 521.5,555.333 613.5,556C 632.204,602.239 650.204,648.739 667.5,695.5C 604.166,695.333 540.832,695.5 477.5,696C 451.5,763 425.5,830 399.5,897C 388.833,897.667 378.167,897.667 367.5,897C 320.938,850.272 274.272,803.772 227.5,757.5 Z"/></g>
<g><path style="opacity:1" fill="#a588ff" d="M 259.5,755.5 C 248.833,756.167 238.167,756.833 227.5,757.5C 226.957,757.44 226.624,757.107 226.5,756.5C 237.48,755.501 248.48,755.168 259.5,755.5 Z"/></g>
<g><path style="opacity:1" fill="#a285ff" d="M 724.5,755.5 C 713.833,756.167 703.167,756.833 692.5,757.5C 691.957,757.44 691.624,757.107 691.5,756.5C 702.48,755.501 713.48,755.168 724.5,755.5 Z"/></g>
</svg>
